{
    "asset" : {
        "generator" : "Khronos glTF Blender I/O v0.9.36",
        "version" : "2.0"
    },
    "scene" : 0,
    "scenes" : [
        {
            "name" : "Scene",
            "nodes" : [
                1
            ]
        }
    ],
    "nodes" : [
        {
            "mesh" : 0,
            "name" : "character_bearHead",
            "translation" : [
                0,
                0.7037111520767212,
                0
            ]
        },
        {
            "children" : [
                0
            ],
            "mesh" : 1,
            "name" : "character_bear"
        }
    ],
    "materials" : [
        {
            "name" : "Black",
            "pbrMetallicRoughness" : {
                "baseColorFactor" : [
                    0.019794002175331116,
                    0.03207586705684662,
                    0.037408243864774704,
                    1
                ],
                "metallicFactor" : 0,
                "roughnessFactor" : 0.20000000298023224
            }
        },
        {
            "name" : "BrownDark",
            "pbrMetallicRoughness" : {
                "baseColorFactor" : [
                    0.32694560289382935,
                    0.10152623057365417,
                    0.05927089974284172,
                    1
                ],
                "metallicFactor" : 0,
                "roughnessFactor" : 0.4000000059604645
            }
        }
    ],
    "meshes" : [
        {
            "name" : "Cube.1337",
            "primitives" : [
                {
                    "attributes" : {
                        "POSITION" : 0,
                        "NORMAL" : 1,
                        "TEXCOORD_0" : 2
                    },
                    "indices" : 3,
                    "material" : 0
                },
                {
                    "attributes" : {
                        "POSITION" : 4,
                        "NORMAL" : 5,
                        "TEXCOORD_0" : 6
                    },
                    "indices" : 7,
                    "material" : 1
                }
            ]
        },
        {
            "name" : "Cube.047",
            "primitives" : [
                {
                    "attributes" : {
                        "POSITION" : 8,
                        "NORMAL" : 9,
                        "TEXCOORD_0" : 10
                    },
                    "indices" : 11,
                    "material" : 1
                }
            ]
        }
    ],
    "accessors" : [
        {
            "bufferView" : 0,
            "componentType" : 5126,
            "count" : 183,
            "max" : [
                0.33058083057403564,
                0.4932206869125366,
                0.6103495955467224
            ],
            "min" : [
                -0.33058077096939087,
                0.264190673828125,
                0.3631858825683594
            ],
            "type" : "VEC3"
        },
        {
            "bufferView" : 1,
            "componentType" : 5126,
            "count" : 183,
            "type" : "VEC3"
        },
        {
            "bufferView" : 2,
            "componentType" : 5126,
            "count" : 183,
            "type" : "VEC2"
        },
        {
            "bufferView" : 3,
            "componentType" : 5123,
            "count" : 594,
            "type" : "SCALAR"
        },
        {
            "bufferView" : 4,
            "componentType" : 5126,
            "count" : 912,
            "max" : [
                0.5510091781616211,
                0.9339144229888916,
                0.5645328760147095
            ],
            "min" : [
                -0.5532671809196472,
                0,
                -0.49999961256980896
            ],
            "type" : "VEC3"
        },
        {
            "bufferView" : 5,
            "componentType" : 5126,
            "count" : 912,
            "type" : "VEC3"
        },
        {
            "bufferView" : 6,
            "componentType" : 5126,
            "count" : 912,
            "type" : "VEC2"
        },
        {
            "bufferView" : 7,
            "componentType" : 5123,
            "count" : 3600,
            "type" : "SCALAR"
        },
        {
            "bufferView" : 8,
            "componentType" : 5126,
            "count" : 453,
            "max" : [
                0.4689466655254364,
                0.7255614399909973,
                0.3499997556209564
            ],
            "min" : [
                -0.4689467251300812,
                9.685754776000977e-08,
                -0.3499997556209564
            ],
            "type" : "VEC3"
        },
        {
            "bufferView" : 9,
            "componentType" : 5126,
            "count" : 453,
            "type" : "VEC3"
        },
        {
            "bufferView" : 10,
            "componentType" : 5126,
            "count" : 453,
            "type" : "VEC2"
        },
        {
            "bufferView" : 11,
            "componentType" : 5123,
            "count" : 2304,
            "type" : "SCALAR"
        }
    ],
    "bufferViews" : [
        {
            "buffer" : 0,
            "byteLength" : 2196,
            "byteOffset" : 0
        },
        {
            "buffer" : 0,
            "byteLength" : 2196,
            "byteOffset" : 2196
        },
        {
            "buffer" : 0,
            "byteLength" : 1464,
            "byteOffset" : 4392
        },
        {
            "buffer" : 0,
            "byteLength" : 1188,
            "byteOffset" : 5856
        },
        {
            "buffer" : 0,
            "byteLength" : 10944,
            "byteOffset" : 7044
        },
        {
            "buffer" : 0,
            "byteLength" : 10944,
            "byteOffset" : 17988
        },
        {
            "buffer" : 0,
            "byteLength" : 7296,
            "byteOffset" : 28932
        },
        {
            "buffer" : 0,
            "byteLength" : 7200,
            "byteOffset" : 36228
        },
        {
            "buffer" : 0,
            "byteLength" : 5436,
            "byteOffset" : 43428
        },
        {
            "buffer" : 0,
            "byteLength" : 5436,
            "byteOffset" : 48864
        },
        {
            "buffer" : 0,
            "byteLength" : 3624,
            "byteOffset" : 54300
        },
        {
            "buffer" : 0,
            "byteLength" : 4608,
            "byteOffset" : 57924
        }
    ],
    "buffers" : [
        {
            "byteLength" : 62532,
            "uri" : "data:application/octet-stream;base64,"
        }
    ]
}
