{
    "asset" : {
        "generator" : "Khronos glTF Blender I/O v0.9.36",
        "version" : "2.0"
    },
    "scene" : 0,
    "scenes" : [
        {
            "name" : "Scene",
            "nodes" : [
                1
            ]
        }
    ],
    "nodes" : [
        {
            "mesh" : 0,
            "name" : "character_duckHead",
            "translation" : [
                0,
                0.7037110328674316,
                0
            ]
        },
        {
            "children" : [
                0
            ],
            "mesh" : 1,
            "name" : "character_duck"
        }
    ],
    "materials" : [
        {
            "name" : "White",
            "pbrMetallicRoughness" : {
                "baseColorFactor" : [
                    0.799102783203125,
                    0.799102783203125,
                    0.799102783203125,
                    1
                ],
                "metallicFactor" : 0,
                "roughnessFactor" : 0.5
            }
        },
        {
            "name" : "Yellow",
            "pbrMetallicRoughness" : {
                "baseColorFactor" : [
                    1,
                    0.5052202939987183,
                    0.017695415765047073,
                    1
                ],
                "metallicFactor" : 0,
                "roughnessFactor" : 0.20000000298023224
            }
        },
        {
            "name" : "Black",
            "pbrMetallicRoughness" : {
                "baseColorFactor" : [
                    0.019794002175331116,
                    0.03207586705684662,
                    0.037408243864774704,
                    1
                ],
                "metallicFactor" : 0,
                "roughnessFactor" : 0.20000000298023224
            }
        }
    ],
    "meshes" : [
        {
            "name" : "Cube.1338",
            "primitives" : [
                {
                    "attributes" : {
                        "POSITION" : 0,
                        "NORMAL" : 1,
                        "TEXCOORD_0" : 2
                    },
                    "indices" : 3,
                    "material" : 0
                },
                {
                    "attributes" : {
                        "POSITION" : 4,
                        "NORMAL" : 5,
                        "TEXCOORD_0" : 6
                    },
                    "indices" : 7,
                    "material" : 1
                },
                {
                    "attributes" : {
                        "POSITION" : 8,
                        "NORMAL" : 9,
                        "TEXCOORD_0" : 10
                    },
                    "indices" : 11,
                    "material" : 2
                }
            ]
        },
        {
            "name" : "Cube.048",
            "primitives" : [
                {
                    "attributes" : {
                        "POSITION" : 12,
                        "NORMAL" : 13,
                        "TEXCOORD_0" : 14
                    },
                    "indices" : 15,
                    "material" : 0
                }
            ]
        }
    ],
    "accessors" : [
        {
            "bufferView" : 0,
            "componentType" : 5126,
            "count" : 665,
            "max" : [
                0.49999964237213135,
                1.1882190704345703,
                0.4999997019767761
            ],
            "min" : [
                -0.4999997615814209,
                0,
                -0.49999961256980896
            ],
            "type" : "VEC3"
        },
        {
            "bufferView" : 1,
            "componentType" : 5126,
            "count" : 665,
            "type" : "VEC3"
        },
        {
            "bufferView" : 2,
            "componentType" : 5126,
            "count" : 665,
            "type" : "VEC2"
        },
        {
            "bufferView" : 3,
            "componentType" : 5123,
            "count" : 2988,
            "type" : "SCALAR"
        },
        {
            "bufferView" : 4,
            "componentType" : 5126,
            "count" : 170,
            "max" : [
                0.2863595485687256,
                0.4807014465332031,
                0.654973566532135
            ],
            "min" : [
                -0.2863594889640808,
                0.1799512505531311,
                0.32956019043922424
            ],
            "type" : "VEC3"
        },
        {
            "bufferView" : 5,
            "componentType" : 5126,
            "count" : 170,
            "type" : "VEC3"
        },
        {
            "bufferView" : 6,
            "componentType" : 5126,
            "count" : 170,
            "type" : "VEC2"
        },
        {
            "bufferView" : 7,
            "componentType" : 5123,
            "count" : 936,
            "type" : "SCALAR"
        },
        {
            "bufferView" : 8,
            "componentType" : 5126,
            "count" : 108,
            "max" : [
                0.33058083057403564,
                0.4932206869125366,
                0.468027800321579
            ],
            "min" : [
                -0.33058077096939087,
                0.35582518577575684,
                0.3631858825683594
            ],
            "type" : "VEC3"
        },
        {
            "bufferView" : 9,
            "componentType" : 5126,
            "count" : 108,
            "type" : "VEC3"
        },
        {
            "bufferView" : 10,
            "componentType" : 5126,
            "count" : 108,
            "type" : "VEC2"
        },
        {
            "bufferView" : 11,
            "componentType" : 5123,
            "count" : 396,
            "type" : "SCALAR"
        },
        {
            "bufferView" : 12,
            "componentType" : 5126,
            "count" : 551,
            "max" : [
                0.4689466655254364,
                0.7255613207817078,
                0.3499997556209564
            ],
            "min" : [
                -0.4689467251300812,
                -2.2351741790771484e-08,
                -0.42082837224006653
            ],
            "type" : "VEC3"
        },
        {
            "bufferView" : 13,
            "componentType" : 5126,
            "count" : 551,
            "type" : "VEC3"
        },
        {
            "bufferView" : 14,
            "componentType" : 5126,
            "count" : 551,
            "type" : "VEC2"
        },
        {
            "bufferView" : 15,
            "componentType" : 5123,
            "count" : 2760,
            "type" : "SCALAR"
        }
    ],
    "bufferViews" : [
        {
            "buffer" : 0,
            "byteLength" : 7980,
            "byteOffset" : 0
        },
        {
            "buffer" : 0,
            "byteLength" : 7980,
            "byteOffset" : 7980
        },
        {
            "buffer" : 0,
            "byteLength" : 5320,
            "byteOffset" : 15960
        },
        {
            "buffer" : 0,
            "byteLength" : 5976,
            "byteOffset" : 21280
        },
        {
            "buffer" : 0,
            "byteLength" : 2040,
            "byteOffset" : 27256
        },
        {
            "buffer" : 0,
            "byteLength" : 2040,
            "byteOffset" : 29296
        },
        {
            "buffer" : 0,
            "byteLength" : 1360,
            "byteOffset" : 31336
        },
        {
            "buffer" : 0,
            "byteLength" : 1872,
            "byteOffset" : 32696
        },
        {
            "buffer" : 0,
            "byteLength" : 1296,
            "byteOffset" : 34568
        },
        {
            "buffer" : 0,
            "byteLength" : 1296,
            "byteOffset" : 35864
        },
        {
            "buffer" : 0,
            "byteLength" : 864,
            "byteOffset" : 37160
        },
        {
            "buffer" : 0,
            "byteLength" : 792,
            "byteOffset" : 38024
        },
        {
            "buffer" : 0,
            "byteLength" : 6612,
            "byteOffset" : 38816
        },
        {
            "buffer" : 0,
            "byteLength" : 6612,
            "byteOffset" : 45428
        },
        {
            "buffer" : 0,
            "byteLength" : 4408,
            "byteOffset" : 52040
        },
        {
            "buffer" : 0,
            "byteLength" : 5520,
            "byteOffset" : 56448
        }
    ],
    "buffers" : [
        {
            "byteLength" : 61968,
            "uri" : "data:application/octet-stream;base64,"
        }
    ]
}
