{
    "asset" : {
        "generator" : "Khronos glTF Blender I/O v0.9.36",
        "version" : "2.0"
    },
    "scene" : 0,
    "scenes" : [
        {
            "name" : "Scene",
            "nodes" : [
                1
            ]
        }
    ],
    "nodes" : [
        {
            "mesh" : 0,
            "name" : "character_dogHead",
            "translation" : [
                0,
                0.7037111520767212,
                0
            ]
        },
        {
            "children" : [
                0
            ],
            "mesh" : 1,
            "name" : "character_dog"
        }
    ],
    "materials" : [
        {
            "doubleSided" : true,
            "name" : "Beige",
            "pbrMetallicRoughness" : {
                "baseColorFactor" : [
                    0.7029160857200623,
                    0.4253237545490265,
                    0.20689357817173004,
                    1
                ],
                "metallicFactor" : 0,
                "roughnessFactor" : 0.5
            }
        },
        {
            "name" : "Red",
            "pbrMetallicRoughness" : {
                "baseColorFactor" : [
                    1,
                    0.02505292184650898,
                    0.11802464723587036,
                    1
                ],
                "metallicFactor" : 0,
                "roughnessFactor" : 0.20000000298023224
            }
        },
        {
            "name" : "Black",
            "pbrMetallicRoughness" : {
                "baseColorFactor" : [
                    0.019794002175331116,
                    0.03207586705684662,
                    0.037408243864774704,
                    1
                ],
                "metallicFactor" : 0,
                "roughnessFactor" : 0.20000000298023224
            }
        }
    ],
    "meshes" : [
        {
            "name" : "Cube.1339",
            "primitives" : [
                {
                    "attributes" : {
                        "POSITION" : 0,
                        "NORMAL" : 1,
                        "TEXCOORD_0" : 2
                    },
                    "indices" : 3,
                    "material" : 0
                },
                {
                    "attributes" : {
                        "POSITION" : 4,
                        "NORMAL" : 5,
                        "TEXCOORD_0" : 6
                    },
                    "indices" : 7,
                    "material" : 1
                },
                {
                    "attributes" : {
                        "POSITION" : 8,
                        "NORMAL" : 9,
                        "TEXCOORD_0" : 10
                    },
                    "indices" : 11,
                    "material" : 2
                }
            ]
        },
        {
            "name" : "Cube.046",
            "primitives" : [
                {
                    "attributes" : {
                        "POSITION" : 12,
                        "NORMAL" : 13,
                        "TEXCOORD_0" : 14
                    },
                    "indices" : 15,
                    "material" : 0
                }
            ]
        }
    ],
    "accessors" : [
        {
            "bufferView" : 0,
            "componentType" : 5126,
            "count" : 912,
            "max" : [
                0.6946033835411072,
                0.9339144229888916,
                0.675747811794281
            ],
            "min" : [
                -0.6946104168891907,
                0,
                -0.49999961256980896
            ],
            "type" : "VEC3"
        },
        {
            "bufferView" : 1,
            "componentType" : 5126,
            "count" : 912,
            "type" : "VEC3"
        },
        {
            "bufferView" : 2,
            "componentType" : 5126,
            "count" : 912,
            "type" : "VEC2"
        },
        {
            "bufferView" : 3,
            "componentType" : 5123,
            "count" : 3600,
            "type" : "SCALAR"
        },
        {
            "bufferView" : 4,
            "componentType" : 5126,
            "count" : 64,
            "max" : [
                0.06676916778087616,
                0.28054362535476685,
                0.6090513467788696
            ],
            "min" : [
                -0.06676924228668213,
                0.08927077054977417,
                0.541892945766449
            ],
            "type" : "VEC3"
        },
        {
            "bufferView" : 5,
            "componentType" : 5126,
            "count" : 64,
            "type" : "VEC3"
        },
        {
            "bufferView" : 6,
            "componentType" : 5126,
            "count" : 64,
            "type" : "VEC2"
        },
        {
            "bufferView" : 7,
            "componentType" : 5123,
            "count" : 222,
            "type" : "SCALAR"
        },
        {
            "bufferView" : 8,
            "componentType" : 5126,
            "count" : 183,
            "max" : [
                0.33058083057403564,
                0.4932206869125366,
                0.728752076625824
            ],
            "min" : [
                -0.33058077096939087,
                0.264190673828125,
                0.3631858825683594
            ],
            "type" : "VEC3"
        },
        {
            "bufferView" : 9,
            "componentType" : 5126,
            "count" : 183,
            "type" : "VEC3"
        },
        {
            "bufferView" : 10,
            "componentType" : 5126,
            "count" : 183,
            "type" : "VEC2"
        },
        {
            "bufferView" : 11,
            "componentType" : 5123,
            "count" : 594,
            "type" : "SCALAR"
        },
        {
            "bufferView" : 12,
            "componentType" : 5126,
            "count" : 453,
            "max" : [
                0.4689466655254364,
                0.7255614399909973,
                0.3499997556209564
            ],
            "min" : [
                -0.4689467251300812,
                9.685754776000977e-08,
                -0.3499997556209564
            ],
            "type" : "VEC3"
        },
        {
            "bufferView" : 13,
            "componentType" : 5126,
            "count" : 453,
            "type" : "VEC3"
        },
        {
            "bufferView" : 14,
            "componentType" : 5126,
            "count" : 453,
            "type" : "VEC2"
        },
        {
            "bufferView" : 15,
            "componentType" : 5123,
            "count" : 2304,
            "type" : "SCALAR"
        }
    ],
    "bufferViews" : [
        {
            "buffer" : 0,
            "byteLength" : 10944,
            "byteOffset" : 0
        },
        {
            "buffer" : 0,
            "byteLength" : 10944,
            "byteOffset" : 10944
        },
        {
            "buffer" : 0,
            "byteLength" : 7296,
            "byteOffset" : 21888
        },
        {
            "buffer" : 0,
            "byteLength" : 7200,
            "byteOffset" : 29184
        },
        {
            "buffer" : 0,
            "byteLength" : 768,
            "byteOffset" : 36384
        },
        {
            "buffer" : 0,
            "byteLength" : 768,
            "byteOffset" : 37152
        },
        {
            "buffer" : 0,
            "byteLength" : 512,
            "byteOffset" : 37920
        },
        {
            "buffer" : 0,
            "byteLength" : 444,
            "byteOffset" : 38432
        },
        {
            "buffer" : 0,
            "byteLength" : 2196,
            "byteOffset" : 38876
        },
        {
            "buffer" : 0,
            "byteLength" : 2196,
            "byteOffset" : 41072
        },
        {
            "buffer" : 0,
            "byteLength" : 1464,
            "byteOffset" : 43268
        },
        {
            "buffer" : 0,
            "byteLength" : 1188,
            "byteOffset" : 44732
        },
        {
            "buffer" : 0,
            "byteLength" : 5436,
            "byteOffset" : 45920
        },
        {
            "buffer" : 0,
            "byteLength" : 5436,
            "byteOffset" : 51356
        },
        {
            "buffer" : 0,
            "byteLength" : 3624,
            "byteOffset" : 56792
        },
        {
            "buffer" : 0,
            "byteLength" : 4608,
            "byteOffset" : 60416
        }
    ],
    "buffers" : [
        {
            "byteLength" : 65024,
            "uri" : "data:application/octet-stream;base64,"
        }
    ]
}
